<svg width="17" height="17" viewBox="0 0 17 17" fill="none" xmlns="http://www.w3.org/2000/svg">
<path d="M13.8271 2.65469C12.3771 1.20469 10.3871 0.304688 8.17712 0.304688C6.05539 0.304688 4.02056 1.14754 2.52027 2.64783C1.01998 4.14812 0.177124 6.18296 0.177124 8.30469C0.177124 10.4264 1.01998 12.4613 2.52027 13.9615C4.02056 15.4618 6.05539 16.3047 8.17712 16.3047C11.9071 16.3047 15.0171 13.7547 15.9071 10.3047H13.8271C13.0071 12.6347 10.7871 14.3047 8.17712 14.3047C6.58583 14.3047 5.0597 13.6725 3.93448 12.5473C2.80927 11.4221 2.17712 9.89599 2.17712 8.30469C2.17712 6.71339 2.80927 5.18727 3.93448 4.06205C5.0597 2.93683 6.58583 2.30469 8.17712 2.30469C9.83712 2.30469 11.3171 2.99469 12.3971 4.08469L9.17712 7.30469H16.1771V0.304688L13.8271 2.65469Z" fill="black"/>
</svg>
